<?xml version="1.0" encoding="utf-8"?>
<!-- Generator: Adobe Illustrator 22.0.1, SVG Export Plug-In . SVG Version: 6.00 Build 0)  -->
<svg version="1.1" baseProfile="basic" id="Layer_1"
	 xmlns="http://www.w3.org/2000/svg" xmlns:xlink="http://www.w3.org/1999/xlink" x="0px" y="0px" viewBox="0 0 1600 1200"
	 xml:space="preserve">
<g>
	<g>
		<path fill="#588C2A" d="M774.694,605.119c-0.362,0.734-0.506,1.241-0.506,1.241l0,0L774.694,605.119z"/>
		<path fill="#588C2A" d="M778.684,605.105c-0.054,0.011-0.108,0.022-0.16,0.034c-0.062,0.014-0.121,0.029-0.181,0.044
			c-0.049,0.012-0.099,0.024-0.146,0.036c-0.062,0.016-0.119,0.033-0.178,0.05c-0.041,0.012-0.084,0.023-0.124,0.036
			c-0.069,0.021-0.133,0.044-0.196,0.067c-0.024,0.009-0.051,0.017-0.075,0.026c-0.086,0.032-0.166,0.066-0.238,0.1
			c-1.064,0.509-1.871,1.396-2.009,1.553c-0.014,0.016-0.023,0.027-0.023,0.027c-0.944,0.26-1.15-0.58-1.167-0.717v0l0,0l0,0
			c0.003-4.03,4.274-6.506,4.664-6.658c0.39-0.152,0.53,0.152,0.733,0.061c0.203-0.091,0.921-0.4,0.795-0.82
			c-0.082-0.273,0.226-0.68,2.25-1.915c2.249-1.372,2.594-1.106,2.594-1.106c0.824,0.529,1.085,1.293,1.085,1.293
			c0.103,0.035,0.199,0.076,0.292,0.122c0.03,0.015,0.058,0.033,0.087,0.049c0.06,0.033,0.12,0.066,0.176,0.102
			c0.031,0.021,0.06,0.044,0.09,0.066c0.05,0.036,0.099,0.072,0.146,0.111c0.028,0.024,0.054,0.048,0.08,0.073
			c0.045,0.041,0.089,0.082,0.13,0.125c0.023,0.024,0.045,0.049,0.066,0.073c0.042,0.047,0.083,0.094,0.121,0.143
			c0.017,0.022,0.034,0.044,0.051,0.067c0.04,0.054,0.079,0.109,0.115,0.164c0.011,0.018,0.023,0.035,0.034,0.053
			c0.04,0.063,0.077,0.126,0.112,0.189c0.006,0.01,0.012,0.021,0.017,0.031c0.04,0.074,0.077,0.147,0.111,0.219c0,0,0,0,0,0.001v0
			c0.062,0.133,0.114,0.262,0.159,0.385c2.243-1.35,4.714-2.771,7.399-4.222c-16.971-11.346-36.777-14.039-58.956-7.984
			c-7.047,1.924-13.315,4.495-18.366,6.931v22.766c4.896-2.18,13.199-5.394,23.533-7.504c11.503-2.348,22.662-2.707,33.161-1.129
			c0.942-0.715,2.348-1.75,4.165-3.011c-0.054,0.01-0.109,0.02-0.162,0.03C778.808,605.079,778.746,605.092,778.684,605.105z"/>
		<path fill="#6BAA39" d="M794.811,608.068c-1.77-0.861-3.221-1.478-4.379-1.922c-2.315,1.423-4.355,2.749-6.066,3.907
			c4.158,1.144,8.185,2.619,12.061,4.418v-5.612C795.892,608.596,795.354,608.333,794.811,608.068z"/>
		<polygon fill="#319CF4" points="760.868,549.855 796.427,525.426 796.427,481.111 718.174,528.996 718.174,560.095 
			760.868,532.947 		"/>
		<path fill="#98D01D" d="M762.706,635.035c0,0.212-0.529,1.745-0.846,2.275c-0.065,0.109-0.108,0.266-0.15,0.438h2.257
			c0.027-0.08,0.047-0.172,0.061-0.28C764.134,636.621,762.706,635.035,762.706,635.035z"/>
		<path fill="#98D01D" d="M731.633,619.227c0.202,0.242,0.44,0.6,0.718,1.107c2.326,4.23,8.037,2.697,9.043,1.481
			c1.004-1.216,4.812-2.115,4.812-2.115c2.697-2.327,7.35-2.222,11.58-0.529c4.23,1.693,8.408,1.85,10.313,0.952
			c1.903-0.899,3.12-1.426,3.12-1.426c-0.687-1.323,0-2.539,0-2.539c0.846,0,2.592,0.899,2.592,0.899
			c-0.054-3.172,0.74-0.582,1.374-0.317c0.636,0.265,0.899,0.952,0.899,0.952c1.006,0.422,2.962,1.798,3.174,2.802
			c0.212,1.006,3.701,2.804,3.701,2.804c0.424,1.111-1.956,2.485-1.956,2.485s-0.319,0.634-2.222,0.16
			c-1.903-0.477-2.644,0.263-4.6,3.014c-1.958,2.75-7.932,5.552-7.932,5.552s0.207,1.718,0.315,3.242h29.864v-15.322
			C772.52,609.86,747.148,614.253,731.633,619.227z"/>
		<path fill="#98D01D" d="M759.427,636.516c0.158-0.477,0.477-3.332,0.477-3.332c-0.689-1.693-4.707-2.592-4.707-2.592
			c0,2.487-0.424,2.962-2.592,4.867c-0.723,0.634-0.886,1.452-0.749,2.288h4.653C757.845,637.011,759.328,636.815,759.427,636.516z"
			/>
		<path fill="#98D01D" d="M749.433,634.718c0.21-0.74,0.21-4.125-2.487-5.182c-2.697-1.057-3.279-4.548-3.279-4.548
			c-8.249,5.499-11.368-0.37-12.267-1.693c-0.478-0.703-0.837-2.691-0.718-3.764c-5.999,1.982-10.407,4.002-12.508,5.035v13.181
			h31.322C749.443,636.587,749.296,635.195,749.433,634.718z"/>
		<path fill="#414042" d="M753.732,563.415v-17.474l-35.559,22.611v17.474c4.699-2.1,10.19-4.194,16.26-5.866
			c22.73-6.26,43.976-3.841,61.993,6.955v-53.032L753.732,563.415z M748.562,575.303c-0.484,0-0.875-0.391-0.875-0.875
			c0-0.482,0.391-0.874,0.875-0.874c0.482,0,0.875,0.391,0.875,0.874C749.437,574.911,749.044,575.303,748.562,575.303z
			 M760.82,574.15c-1.633,0-2.957-1.324-2.957-2.957c0-1.633,1.324-2.957,2.957-2.957c1.634,0,2.959,1.324,2.959,2.957
			C763.779,572.826,762.453,574.15,760.82,574.15z M769.288,568.235c-0.752,0-1.362-0.61-1.362-1.362s0.61-1.364,1.362-1.364
			c0.753,0,1.362,0.611,1.362,1.364S770.041,568.235,769.288,568.235z M775.913,576.88c-1.557,0-2.82-1.262-2.82-2.818
			c0-1.557,1.262-2.819,2.82-2.819c1.557,0,2.819,1.262,2.819,2.819C778.732,575.618,777.47,576.88,775.913,576.88z
			 M789.069,573.685c-2.544,0-4.605-2.062-4.605-4.604c0-2.543,2.062-4.604,4.605-4.604c2.542,0,4.604,2.061,4.604,4.604
			C793.673,571.624,791.611,573.685,789.069,573.685z M792.792,559.591c-1.142,0-2.067-0.925-2.067-2.067
			c0-1.142,0.925-2.067,2.067-2.067c1.141,0,2.068,0.925,2.068,2.067C794.859,558.666,793.932,559.591,792.792,559.591z"/>
		<path fill="#98D01D" d="M852.107,630.256c0.005,0.004,0.01,0.009,0.015,0.013c0.032,0.028,0.065,0.057,0.1,0.089
			c0.019,0.017,0.038,0.035,0.058,0.053c0.035,0.032,0.071,0.066,0.108,0.101c0.021,0.019,0.041,0.039,0.063,0.059
			c0.041,0.039,0.082,0.079,0.125,0.12c0.018,0.018,0.037,0.036,0.055,0.054c0.054,0.053,0.109,0.107,0.166,0.163
			c0.007,0.007,0.015,0.014,0.022,0.022c0.243,0.24,0.505,0.504,0.766,0.76c0.017,0.016,0.033,0.033,0.05,0.049
			c0.048,0.047,0.095,0.093,0.142,0.139c0.023,0.022,0.046,0.045,0.069,0.067c0.044,0.043,0.088,0.085,0.131,0.126
			c0.026,0.025,0.051,0.048,0.076,0.072c0.041,0.039,0.082,0.077,0.121,0.114c0.026,0.024,0.051,0.047,0.076,0.07
			c0.039,0.035,0.078,0.071,0.115,0.105c0.02,0.018,0.039,0.034,0.059,0.051c0.068,0.06,0.133,0.115,0.195,0.166
			c0.154,0.126,0.29,0.226,0.396,0.28c1.104,0.567,2.961,0.365,2.961,0.365c0.168,0.054,0.271,0.202,0.336,0.367
			c0.147,0.303,0.106,0.628,0.106,0.628c-0.954,1.818-5.067,2.186-7.22,1.68c-0.762-0.179-0.371-0.529-0.583-0.585
			c-0.212-0.056-0.617-0.154-0.849-0.154c-0.232,0-0.386,0.267-0.714,0.417c-0.328,0.15-1.485-0.038-3.163-0.32
			c-1.678-0.282-2.064-0.752-2.064-0.752c0.058-1.034,0.248-1.597,0.248-1.597c0-0.116,0.003-0.227,0.009-0.337
			c0.002-0.035,0.004-0.068,0.006-0.102c0.005-0.075,0.01-0.149,0.017-0.221c0.003-0.036,0.007-0.072,0.011-0.107
			c0.008-0.073,0.017-0.143,0.027-0.212c0.004-0.028,0.008-0.057,0.012-0.085c0.014-0.088,0.029-0.173,0.046-0.256
			c0.008-0.041,0.017-0.081,0.026-0.121c0.01-0.043,0.019-0.085,0.029-0.127c0.011-0.045,0.022-0.089,0.034-0.132
			c0.001-0.004,0.002-0.007,0.003-0.01c-3.948,0.51-7.819,0.778-11.591,0.778c-10.533,0-20.328-1.991-29.128-5.941v11.641h78.254
			v-18.032c-5.281,2.534-12.158,5.427-20.043,7.787c-3.29,0.985-6.535,1.792-9.738,2.456c0.032,0.117,0.061,0.227,0.083,0.315
			C852.12,630.268,852.114,630.263,852.107,630.256z"/>
		<path fill="#6BAA39" d="M835.536,613.671c-0.562-3.141-1.096-4.741-2.625-5.899c-1.364-1.034-8.056-7.311-9.483-8.652
			c-0.797,1.76-2.998,6.298-5.919,9.662c-3.699,4.259-6.22,6.167-7.789,6.113c-0.851-0.03-3.137-1.05-6.146-2.509v5.804
			c12.476,6.506,25.971,7.603,38.478,6.149c-0.81-1.183-1.711-2.363-2.547-3.154C837.193,618.999,836.271,617.782,835.536,613.671z"
			/>
		<path fill="#6BAA39" d="M830.803,592.875c0,0,2.48,2.516,5.436,6.819c2.956,4.303,4.281,5.694,4.655,6.919
			c0.374,1.225,0.14,3.272,0.204,3.807c0.152,1.268,2.522,5.549,3.999,8.97c0.774,1.793,1.417,3.165,1.947,4.227
			c14.496-2.486,27.216-8.034,34.781-11.894v-28.09c-19.92-2.77-38.679,0.454-53.882,5.225l-0.159,0.714
			C827.785,589.571,830.138,591.747,830.803,592.875z"/>
		<path fill="#6BAA39" d="M807.916,607.287c0.669-0.408,1.227-2.01,3.402-6.71c2.175-4.7,3.485-6.275,3.485-6.275
			c0.036-0.494,0.452-0.673,0.452-0.673c-0.03-0.043-0.051-0.085-0.079-0.128c-4.141,1.711-8.027,3.511-11.603,5.312v5.29
			C805.921,605.316,807.916,607.287,807.916,607.287z M806.17,599.4c0.779,0,1.411,0.63,1.411,1.409c0,0.779-0.632,1.41-1.411,1.41
			c-0.779,0-1.409-0.632-1.409-1.41C804.761,600.031,805.392,599.4,806.17,599.4z"/>
		<polygon fill="#319CF4" points="803.573,453.107 803.573,520.518 826.561,504.725 881.826,542.472 881.826,500.992 		"/>
		<path fill="#414042" d="M813.831,580.54c2.034,0,3.755,1.332,4.343,3.17c0.135-0.21,0.397-0.592,0.876-1.21
			c0.814-1.049,1.497-2.609,1.26-3.53c-0.12-0.466-0.501-1.573-0.856-2.65c-0.233,0.039-0.553,0.101-0.81,0.176
			c-0.461,0.135-0.599,0.501-0.599,0.501c0.457,0.09,1.764,1.028,1.857,1.118c0.009,0.009,0.01,0.015,0.007,0.02
			c0.052,0.039,0.086,0.091,0.098,0.175c0.036,0.259,0.048,0.694-0.519,0.683c0,0,0.169,0.482-0.133,0.694
			c-0.302,0.212-0.688,0.165-0.688,0.165s0.29,0.482,0,0.706c-0.29,0.224-0.809,0.059-0.809,0.059s0.254,0.624-0.06,0.683
			s-0.662,0.07-0.874-0.1c-1.758-0.216-3.387-1.659-3.757-2.074c-0.352-0.395-0.74-0.807-4-2.898
			c0.067,0.206,0.104,0.425,0.104,0.653c0,1.169-0.946,2.114-2.113,2.114c-1.169,0-2.116-0.946-2.116-2.114
			c0-1.128,0.885-2.048,2-2.108c-1.317-1-2.517-2.095-3.469-3.032v19.118c2.123-1.015,4.338-2.024,6.639-3.012
			c-0.582-0.766-0.941-1.71-0.941-2.746C809.271,582.582,811.313,580.54,813.831,580.54z M806.171,587.241
			c-0.941,0-1.703-0.762-1.703-1.703c0-0.941,0.763-1.703,1.703-1.703c0.941,0,1.703,0.763,1.703,1.703
			C807.874,586.479,807.112,587.241,806.171,587.241z"/>
		<path fill="#414042" d="M840.299,537.297l-13.551-10.616l-12.373,10.616l-10.803-8.121v36.866
			c1.654-1.174,4.329-2.425,6.133-2.965c0.581-0.174,1.017-0.324,1.385-0.467c-0.356-0.213-0.597-0.599-0.597-1.045
			c0-0.674,0.547-1.221,1.22-1.221c0.676,0,1.223,0.547,1.223,1.221c0,0.066-0.009,0.13-0.019,0.193
			c0.262-0.129,0.557-0.269,0.916-0.43c1.777-0.793,3.128-0.757,3.535-0.793c0.407-0.036,1.073-0.577,2.332-1.406
			c1.259-0.829,1.766-0.751,1.766-0.751s0.919-0.179,1.339-0.409c0,0,1.236-0.138,1.905-1.383s0.426-1.898,0.213-2.283
			c-0.213-0.385-1.239-1.216-1.532-2.372c-0.118-0.465,0.008-1.268,0.279-2.125l-0.007,0.002c0,0,0.008-0.015,0.018-0.036
			c0.072-0.226,0.15-0.451,0.242-0.679c0.062-0.253,0.102-0.553,0.079-0.866c-0.598,1.81-1.976,4.931-4.574,6.106
			c-3.496,1.581-5.368,0.284-8.364,2.108c0,0,1.04-1.217,3.787-1.602c0,0-1.873-0.628-3.454,0.224c0,0,0.666-0.892,2.913-0.932
			c2.247-0.041,3.775-0.77,4.363-1.824c0.589-1.054,0.63-2.595,1.754-3.446c0,0-1.706,0.365-3.163,2.311
			c-1.456,1.946-4.286,1.946-5.992,1.135c0,0,2.164,0.73,3.745-0.365c1.581-1.095,1.665-2.676,2.497-4.46s3.537-2.352,4.494-1.824
			c0,0-1.938-1.784-6.712,0.932c-4.774,2.716-6.355,1.014-6.355,1.014s0.868,0.92,4.786-0.973
			c4.106-1.984,10.009-8.149,13.358-1.216c0,0,0.313,0.003,0.562,0.095c0.526-0.147,1.68-0.352,3.24,0.076
			c2.161,0.593,3.744,2.639,3.957,4.27c0.213,1.631-0.061,2.491-0.183,2.609c-0.122,0.119-0.122,0.385-0.122,0.385
			s-0.244,0.059-0.335,0.178s-0.03,0.385-0.03,0.563s0.28,1.441,0.566,1.886c0,0-0.231,0.486-0.718,0.486
			c0,0-0.134,0.146-0.152,0.285c-0.018,0.139,0.041,0.406-0.305,0.357c0,0,0.136,0.26,0.083,0.347s-0.1,0.243-0.261,0.26
			c0,0-0.267,0.265-0.196,0.757c0.071,0.492-0.463,1.36-1.229,1.377c-0.766,0.017-1.817-0.538-2.066-0.486s-0.581,0.9-0.581,0.9
			s0.664-0.112,1.793,0.102c1.129,0.214,2.791,0.978,4.312,3.376s1.474,2.536,2.666,4.033c1.192,1.497,2.038,2.353,2.963,3.544
			c0,0,0.564-2.139,0.423-3.743c-0.141-1.604-0.219-2.047-0.439-2.139c-0.22-0.092-0.706-0.382-1.348-1.146
			c-0.643-0.764-0.768-1.069-0.894-1.283c-0.125-0.214-0.706-1.192-0.706-1.421s0.862-0.84,1.113-0.733c0,0,0.094-0.29,0.361-0.336
			s1.707-0.214,1.936-0.153s0.416,0.168,0.573,0.153c0.157-0.015,0.737-0.031,0.909,0.137s0.267,0.458,0.392,0.489
			c0.125,0.031,0.267,0.26,0.361,0.474c0.094,0.214,0.314,0.458,0.298,0.626c-0.016,0.168,0,1.451-0.125,2.368
			c-0.125,0.917,0.064,0.978,0.126,1.833c0.062,0.855,0.83,4.064,0.752,7.088c-0.055,2.126-0.818,3.788-1.346,4.615
			c13.127-2.409,26.01-2.819,38.389-1.21v-25.319l-32.006-21.861L840.299,537.297z M806.551,561.161
			c-1.321,0-2.392-1.071-2.392-2.392c0-1.321,1.071-2.392,2.392-2.392s2.392,1.071,2.392,2.392
			C808.943,560.09,807.872,561.161,806.551,561.161z"/>
		<path fill="#414042" d="M833.65,570.221c-0.368,1.356-1.182,2.354-1.392,2.814c-0.21,0.46-0.289,0.895-0.289,0.895
			s0.236,2.456-0.21,3.377c-0.312,0.645-0.908,1.95-1.372,3.368c3.688-1.036,7.362-1.903,11.02-2.63
			c-0.062-0.013-0.12-0.025-0.168-0.037C840.816,577.901,837.133,575.425,833.65,570.221z"/>
		<path fill="#414042" d="M817.58,570.221L817.58,570.221c0,0,0.019-0.993-0.671-1.808c-0.69-0.815-1.025-1.752-1.025-1.752
			s-2.468,0.652-4.789,1.467s-3.576,1.08-3.576,1.08s0.92,1.426,2.468,3.076c1.547,1.65,4.369,4.329,4.683,4.365
			c0.314,0.036,1.965-0.746,2.241-0.827s0.747-0.126,1.457-0.216c0.322-0.041,0.599-0.092,0.811-0.137c0,0.001,0,0.001,0.001,0.002
			c-0.226-0.716-0.4-1.327-0.419-1.592C818.761,573.88,818.079,572.217,817.58,570.221z"/>
		<path fill="#414042" d="M817.801,577.749c0.046-0.011,0.1-0.017,0.166-0.016c0.124,0.003,0.247,0.013,0.368,0.027
			c-0.121-0.014-0.244-0.024-0.368-0.027C817.902,577.732,817.847,577.738,817.801,577.749z"/>
	</g>
	<g>
		<path fill="#231F20" d="M646.798,705.465c1.401-1.87,5.104-8.318,11.108-19.345c5.537-10.157,10.507-17.876,14.91-23.155
			c4.803-5.746,10.006-10.189,15.61-13.331c5.604-3.14,11.073-4.711,16.411-4.711c3.735,0,6.587,0.821,8.556,2.459
			c1.967,1.64,2.952,3.732,2.952,6.274c0,4.284-2.436,8.87-7.305,13.754c-5.404,5.423-10.207,8.132-14.41,8.132
			c-2.001,0-3.002-0.266-3.002-0.801c0-0.133,0.733-0.666,2.202-1.601c2.201-1.333,4.469-3.167,6.805-5.503
			c5.136-5.136,7.705-9.439,7.705-12.909c0-2.602-1.636-3.903-4.903-3.903c-5.471,0-11.908,3.803-19.313,11.408
			c-6.739,6.939-13.376,16.045-19.914,27.318c-4.403,7.673-7.973,13.276-10.708,16.812c5.87,1.136,11.708,3.052,17.512,5.754
			c5.804,2.702,10.607,5.72,14.41,9.057c0.466,0.399,0.4,0.8-0.2,1.2c-1.201,0.866-2.469,1.501-3.803,1.901
			c-1.735,0.533-3.802,0.233-6.204-0.9c-3.47-2.068-6.939-4.17-10.407-6.305c-5.538-3.27-10.507-5.437-14.91-6.504
			c-5.871,6.537-12.375,9.807-19.513,9.807c-2.269,0-4.12-0.435-5.554-1.301c-1.435-0.868-2.151-2.036-2.151-3.503
			c0-2.669,2.102-5.036,6.304-7.104c4.203-2.067,9.172-3.102,14.91-3.102C644.497,705.365,645.463,705.399,646.798,705.465z
			 M642.996,710h-0.601c-2.802,0-5.321,0.45-7.555,1.351c-2.236,0.9-3.352,1.751-3.352,2.552c0,0.533,0.433,0.801,1.301,0.801
			C636.057,714.703,639.459,713.135,642.996,710z"/>
		<path fill="#231F20" d="M674.519,708.467c0-2.402,1.301-5.569,3.902-9.506c2.202-3.268,4.804-6.404,7.806-9.407
			c0.466-0.466,0.933-0.533,1.401-0.2c0.8,0.667,1.367,1.468,1.701,2.401c0.466,1.201,0.266,2.536-0.601,4.003
			c-1.201,1.801-2.401,3.602-3.603,5.403c-1.535,2.269-2.301,4.003-2.301,5.204c0,1.269,0.6,1.901,1.801,1.901
			c3.135,0,7.471-3.468,13.009-10.407c0.2-0.266,0.366-0.366,0.5-0.3c0.133,0.067,0.266,0.2,0.4,0.4
			c0.666,1.201,0.566,2.369-0.3,3.502c-6.671,8.673-12.508,13.009-17.512,13.009C676.585,714.471,674.519,712.47,674.519,708.467z
			 M697.834,675.245c2.001,0,3.002,1.101,3.002,3.302c0,2.136-0.851,4.137-2.552,6.004c-1.701,1.869-3.552,2.802-5.554,2.802
			c-2.069,0-3.102-1.134-3.102-3.402c0-1.801,0.866-3.703,2.602-5.704C693.964,676.246,695.833,675.245,697.834,675.245z"/>
		<path fill="#231F20" d="M726.854,701.462c-3.738,4.67-7.273,7.005-10.608,7.005c-1.735,0-3.169-0.566-4.303-1.701
			c-5.604,5.604-10.307,8.405-14.11,8.405c-3.336,0-4.903-2.001-4.703-6.004c0.133-3.335,1.801-7.67,5.003-13.009
			c2.735-4.536,5.604-8.306,8.606-11.308c0.266-0.266,0.466-0.4,0.601-0.4c0.2,0,0.4,0.134,0.6,0.4
			c0.801,1.001,1.201,2.036,1.201,3.102c0,0.801-0.235,1.601-0.701,2.402c-1.735,3.069-3.002,5.438-3.803,7.105
			c-1.735,3.537-2.636,6.171-2.702,7.905c-0.067,1.268,0.533,1.901,1.801,1.901c2.001,0,4.369-1.266,7.105-3.802
			c0.065-2.802,1.401-5.504,4.002-8.105c2.267-2.202,4.169-3.302,5.704-3.302c0.6,0,0.9,0.267,0.9,0.8
			c0,2.069-2.168,5.671-6.504,10.808c0.466,0.467,1.134,0.7,2,0.7c2.803,0,5.904-2.167,9.307-6.504c0.467-0.6,0.801-0.566,1.002,0.1
			C727.719,699.361,727.586,700.529,726.854,701.462z"/>
		<path fill="#231F20" d="M754.671,701.462c-7.339,9.474-14.877,14.21-22.615,14.21c-3.137,0-5.571-0.785-7.305-2.352
			c-1.735-1.568-2.602-3.652-2.602-6.255c0-4.536,2.451-9.056,7.354-13.559c4.903-4.503,10.057-6.755,15.461-6.755
			c3.868,0,5.703,1.636,5.503,4.903c-0.199,2.937-2.168,5.571-5.903,7.905c-3.938,2.469-8.44,3.603-13.51,3.402
			c-0.134,0.468-0.234,1.068-0.3,1.801c-0.2,3.269,1.366,4.904,4.703,4.904c6.27,0,12.474-3.936,18.612-11.809
			c0.466-0.6,0.801-0.566,1.001,0.1C755.538,699.361,755.405,700.529,754.671,701.462z M731.957,700.662
			c2.867-0.666,5.469-1.934,7.805-3.803c2.067-1.601,3.402-3.168,4.003-4.703c0.4-1.066,0.166-1.601-0.7-1.601
			c-1.536,0-3.453,1.051-5.754,3.152C735.008,695.809,733.222,698.127,731.957,700.662z"/>
		<path fill="#231F20" d="M757.574,706.466c0,1.268,0.767,1.901,2.302,1.901c3.868,0,8.571-3.503,14.109-10.508
			c0.4-0.466,0.701-0.433,0.9,0.1c0.533,1.401,0.434,2.569-0.3,3.502c-6.739,8.74-12.709,13.109-17.912,13.109
			c-4.471,0-6.704-2.236-6.704-6.705c0-3.402,1.666-7.738,5.003-13.009c1.801-2.802,6.737-9.606,14.811-20.414
			c6.537-8.206,13.975-17.512,22.314-27.919c0.333-0.4,0.733-0.433,1.201-0.1c0.801,0.6,1.467,1.435,2.001,2.501
			c0.533,1.068,0.601,2.236,0.2,3.502c-0.667,2.269-3.47,6.539-8.405,12.809c-6.139,7.472-12.243,14.945-18.313,22.416
			C761.309,697.06,757.574,703.331,757.574,706.466z"/>
		<path fill="#231F20" d="M805.305,701.462c-2.336,3.002-6.104,6.604-11.308,10.808c-5.871,4.736-9.842,8.238-11.908,10.507
			c-5.804,6.27-11.042,14.042-15.711,23.316c-0.4,0.8-1.001,1-1.801,0.6c-2.002-1.135-3.002-2.701-3.002-4.703
			c0-1.668,1.067-4.303,3.202-7.905c2.401-3.937,6.069-8.973,11.007-15.11c4.003-4.87,8.006-9.706,12.009-14.51
			c-5.938,6.472-11.075,9.707-15.411,9.707c-3.069,0-4.603-1.602-4.603-4.804c0-5.336,5.169-13.174,15.51-23.516
			c0.2-0.2,0.4-0.3,0.601-0.3c0.733,0,1.434,0.935,2.102,2.802c0.466,1.268,0.366,2.402-0.3,3.402
			c-1.802,2.602-3.57,5.171-5.304,7.705c-2.201,3.27-3.27,5.539-3.202,6.804c0.133,0.601,0.533,0.901,1.2,0.901
			c3.136,0,9.172-5.669,18.112-17.012c0.4-0.466,0.801-0.533,1.201-0.2c0.934,0.801,1.602,1.736,2.001,2.802
			c0.334,0.868,0.2,1.801-0.399,2.802c-1.269,2.136-5.238,7.973-11.908,17.512c3.002-2.402,5.97-4.77,8.906-7.105
			c3.802-3.067,6.604-5.77,8.405-8.105c0.4-0.533,0.733-0.5,1.001,0.1C806.239,699.295,806.106,700.462,805.305,701.462z"/>
		<path fill="#231F20" d="M914.577,660.735c0,3.069-1.801,7.372-5.403,12.909c-1.936,3.069-5.972,8.606-12.108,16.611
			c-9.006,11.808-14.811,20.981-17.412,27.519c-0.334,0.8-0.801,0.9-1.4,0.3c-0.936-0.868-1.686-1.868-2.252-3.002
			c-0.567-1.135-0.851-2.169-0.851-3.103c0-1.266,0.434-2.768,1.301-4.503c1.267-2.667,6.537-10.207,15.811-22.615
			c8.472-11.408,12.709-17.712,12.709-18.913c0-0.733-0.367-1.101-1.101-1.101c-2.401,0-6.905,2.602-13.51,7.806
			c-5.138,4.002-9.173,7.54-12.107,10.607c-8.141,8.406-16.812,19.113-26.018,32.122c-0.4,0.533-0.835,0.533-1.302,0
			c-0.6-0.667-1.135-1.735-1.601-3.202c-0.668-2.066-0.468-4.002,0.601-5.804c2.267-3.936,8.405-12.374,18.412-25.317
			c9.807-12.742,15.544-20.647,17.212-23.716c0.4-0.801,0.601-1.434,0.601-1.901c0-0.8-0.4-1.201-1.201-1.201
			c-2.937,0-8.34,3.37-16.211,10.107c-5.738,4.938-10.441,9.44-14.109,13.509c-5.404,5.938-11.308,13.209-17.712,21.814
			c-4.203,5.738-8.44,11.475-12.709,17.211c-0.4,0.533-0.868,0.533-1.401,0c-0.534-0.6-1.034-1.567-1.501-2.901
			c-0.667-2.002-0.5-3.936,0.501-5.804c1.934-3.536,7.638-11.674,17.111-24.417c9.472-12.542,15.243-20.814,17.312-24.817
			c0.666-1.267,1.001-2.402,1.001-3.402c0-1.801-1.168-2.702-3.502-2.702c-3.002,0-6.672,0.567-11.008,1.701
			c-3.603,1-7.172,2.001-10.707,3.002c-1.802,0.535-3.303,0.8-4.503,0.8c-1.336,0-2.502-0.3-3.503-0.9
			c-1.601-0.934-2.869-2.067-3.803-3.402c-0.534-0.666-0.467-1.134,0.2-1.401c4.068-1.667,9.222-3.152,15.461-4.453
			c6.237-1.301,11.791-1.984,16.661-2.051c8.071-0.133,12.174,2.168,12.309,6.905c0.065,4.137-2.669,9.874-8.206,17.211
			c5.87-6.47,11.941-12.074,18.213-16.812c6.938-5.203,12.241-7.805,15.91-7.805c3.269,0,4.903,1.568,4.903,4.703
			c0,4.538-4.938,12.976-14.81,25.317c5.203-5.204,10.439-9.64,15.711-13.309c5.869-4.003,10.34-6.004,13.409-6.004
			C913.042,656.332,914.577,657.8,914.577,660.735z"/>
		<path fill="#231F20" d="M934.09,701.506c-6.472,8.511-12.309,12.765-17.513,12.765c-1.468,0-2.701-0.497-3.702-1.491
			c-1.001-0.995-1.501-2.314-1.501-3.962c0-0.616,0.065-1.234,0.2-1.852c-4.07,4.869-8.14,7.305-12.208,7.305
			c-2.937,0-4.471-1.468-4.604-4.402c-0.2-5.27,5.004-13.51,15.61-24.717c0.333-0.333,0.666-0.333,1.001,0
			c0.733,0.735,1.267,1.536,1.602,2.402c0.466,1.201,0.3,2.436-0.501,3.702c-1.735,2.602-3.47,5.204-5.203,7.806
			c-2.068,3.269-3.103,5.604-3.103,7.004c0,0.8,0.366,1.201,1.101,1.201c1.602,0,4.536-2.267,8.807-6.804
			c3.268-3.535,6.137-7.07,8.605-10.607c0.333-0.466,0.733-0.466,1.201,0c0.666,0.601,1.134,1.368,1.4,2.302
			c0.333,1,0.301,1.901-0.1,2.702c0,0.067-1.269,2.202-3.803,6.404c-1.535,2.669-2.302,4.538-2.302,5.604
			c0,0.801,0.434,1.201,1.301,1.201c3.402,0,7.771-3.402,13.109-10.207c0.333-0.466,0.633-0.433,0.9,0.102
			C934.991,699.246,934.89,700.427,934.09,701.506z"/>
		<path fill="#231F20" d="M946.097,690.655c-6.004,7.605-9.006,12.943-9.006,16.01c0,1.269,0.7,1.901,2.102,1.901
			c4.535,0,9.639-3.567,15.31-10.707c0.4-0.466,0.733-0.433,1.001,0.1c0.601,1.201,0.466,2.369-0.4,3.502
			c-6.805,8.806-13.176,13.209-19.112,13.209c-4.338,0-6.505-2.269-6.505-6.805c0-3.868,2.734-9.739,8.206-17.612
			c-2.202-0.4-3.771-1.534-4.704-3.402c-0.267-0.533-0.134-0.866,0.4-1c2.268-0.4,5.004-0.666,8.206-0.801
			c2.867-3.603,6.537-8.271,11.007-14.009c0.4-0.533,0.834-0.633,1.302-0.3c1.601,1.068,2.401,2.536,2.401,4.403
			c0,1.468-0.968,3.57-2.902,6.304c-0.801,1.135-1.701,2.302-2.701,3.502c2.201,0.135,3.735,0.268,4.603,0.4
			c0.601,0.067,0.733,0.435,0.4,1.101c-0.468,0.935-1.168,1.801-2.102,2.602C952.334,690.122,949.833,690.655,946.097,690.655z"/>
		<path fill="#231F20" d="M967.111,690.655c-6.004,7.605-9.006,12.943-9.006,16.01c0,1.269,0.7,1.901,2.102,1.901
			c4.535,0,9.639-3.567,15.31-10.707c0.4-0.466,0.733-0.433,1.001,0.1c0.601,1.201,0.466,2.369-0.4,3.502
			c-6.805,8.806-13.176,13.209-19.112,13.209c-4.338,0-6.505-2.269-6.505-6.805c0-3.868,2.734-9.739,8.206-17.612
			c-2.202-0.4-3.771-1.534-4.704-3.402c-0.267-0.533-0.134-0.866,0.4-1c2.268-0.4,5.004-0.666,8.206-0.801
			c2.867-3.603,6.537-8.271,11.007-14.009c0.4-0.533,0.834-0.633,1.302-0.3c1.601,1.068,2.401,2.536,2.401,4.403
			c0,1.468-0.968,3.57-2.902,6.304c-0.801,1.135-1.701,2.302-2.701,3.502c2.201,0.135,3.735,0.268,4.603,0.4
			c0.601,0.067,0.733,0.435,0.4,1.101c-0.468,0.935-1.168,1.801-2.102,2.602C973.348,690.122,970.846,690.655,967.111,690.655z"/>
	</g>
</g>
</svg>
